<svg xmlns="http://www.w3.org/2000/svg" viewBox="0 0 1920 1080" preserveAspectRatio="xMidYMid slice" aria-hidden="true">
  <defs>
    <pattern id="geo" width="62" height="62" patternUnits="userSpaceOnUse">
      <path d="M31 2 60 31 31 60 2 31Z M31 11 51 31 31 51 11 31Z" fill="none" stroke="#b38a46" stroke-width="1" opacity=".14"/>
      <circle cx="31" cy="31" r="8" fill="none" stroke="#12613f" stroke-width="1" opacity=".07"/>
    </pattern>
    <linearGradient id="paper" x1="0" y1="0" x2="0" y2="1">
      <stop offset="0" stop-color="#fffaf0"/>
      <stop offset="1" stop-color="#efe0bd"/>
    </linearGradient>
    <linearGradient id="stone" x1="0" y1="0" x2="1" y2="1">
      <stop offset="0" stop-color="#f8edd6"/>
      <stop offset="1" stop-color="#d7b878"/>
    </linearGradient>
    <linearGradient id="green" x1="0" y1="0" x2="1" y2="1">
      <stop offset="0" stop-color="#12613f"/>
      <stop offset="1" stop-color="#083624"/>
    </linearGradient>
  </defs>

  <rect width="1920" height="1080" fill="url(#paper)"/>
  <rect width="1920" height="1080" fill="url(#geo)"/>

  <g opacity=".42" fill="none" stroke="#b38a46">
    <path d="M0 1080V292C0 164 63 64 156 0h120C368 64 430 164 430 292v788" stroke-width="6"/>
    <path d="M1920 1080V292c0-128-63-228-156-292h-120c-92 64-154 164-154 292v788" stroke-width="6"/>
    <path d="M36 1080V353c0-94 43-169 113-216 70 47 113 122 113 216v727" stroke-width="2"/>
    <path d="M1884 1080V353c0-94-43-169-113-216-70 47-113 122-113 216v727" stroke-width="2"/>
  </g>

  <g opacity=".24" fill="url(#stone)" stroke="#b38a46" stroke-width="2">
    <path d="M0 0h110v1080H0z"/>
    <path d="M1810 0h110v1080h-110z"/>
    <path d="M0 0h410v70H0z"/>
    <path d="M1510 0h410v70h-410z"/>
  </g>

  <g fill="#0b422d" opacity=".17">
    <path d="M45 1008V562h42V350h18V240h18v110h18v212h42v446Z"/>
    <path d="M1737 1008V562h42V350h18V240h18v110h18v212h42v446Z"/>
    <path d="M13 1080V874c42-72 92-108 148-108s106 36 148 108v206Z"/>
    <path d="M1611 1080V874c42-72 92-108 148-108s106 36 148 108v206Z"/>
  </g>

  <g fill="#b38a46" opacity=".34">
    <path d="M94 241h11V182H94z"/><path d="M81 182h37l-18-36z"/><circle cx="100" cy="137" r="6"/>
    <path d="M1815 241h11V182h-11z"/><path d="M1802 182h37l-18-36z"/><circle cx="1821" cy="137" r="6"/>
  </g>

  <g opacity=".13" fill="#12613f">
    <path d="M650 1080v-82h38v-42h15v42h38v82z"/>
    <path d="M718 1080V972c0-44 42-80 94-80 51 0 94 36 94 80v108z"/>
    <path d="M884 1080v-98h34v-72h16v72h34v98z"/>
    <path d="M950 1080V950c0-55 53-98 116-98s116 43 116 98v130z"/>
    <path d="M1158 1080v-88h32v-66h15v66h32v88z"/>
  </g>

  <g opacity=".12" fill="#b38a46">
    <path d="M0 1035h1920v45H0z"/>
    <path d="M0 1008h1920v4H0z"/>
  </g>

  <g opacity=".20" fill="none" stroke="#b38a46">
    <path d="M0 1049h742M1178 1049h742" stroke-width="2"/>
    <path d="M960 1027l28 22-28 22-28-22z" stroke-width="3"/>
    <circle cx="960" cy="1049" r="9" stroke-width="2"/>
  </g>
</svg>
